<svg xmlns="http://www.w3.org/2000/svg" viewBox="0 0 1000 560" width="1000" height="560">
  <style> text{font-family:"Helvetica Neue",Helvetica,Arial,"PingFang SC","Microsoft YaHei","Noto Sans CJK SC",sans-serif;} </style>
  <defs>
    <marker id="at" markerWidth="10" markerHeight="7" refX="9" refY="3.5" orient="auto"><polygon points="0 0,10 3.5,0 7" fill="#0C8F88"/></marker>
    <marker id="ar" markerWidth="10" markerHeight="7" refX="9" refY="3.5" orient="auto"><polygon points="0 0,10 3.5,0 7" fill="#C2504B"/></marker>
    <marker id="ab" markerWidth="10" markerHeight="7" refX="9" refY="3.5" orient="auto"><polygon points="0 0,10 3.5,0 7" fill="#4A6FA5"/></marker>
    <marker id="am" markerWidth="10" markerHeight="7" refX="9" refY="3.5" orient="auto"><polygon points="0 0,10 3.5,0 7" fill="#6A7480"/></marker>
  </defs>
  <rect width="1000" height="560" fill="#FFFFFF"/>
  <text x="500.0" y="40" text-anchor="middle" fill="#0F1721" font-size="18" font-weight="800">三种编排形态 · 各司其职</text>
  <rect x="60" y="84" width="880" height="52" rx="10" fill="#EAF6F5" stroke="#0C8F88" stroke-width="1.8"/>
  <text x="80" y="115" text-anchor="start" fill="#0C8F88" font-size="15" font-weight="800">command · /test-intake</text>
  <text x="920" y="115" text-anchor="end" fill="#6A7480" font-size="13" font-weight="600">主会话顺序编排 + 人工闸口</text>
  <rect x="60.0" y="200" width="150" height="46" rx="8" fill="#FFFFFF" stroke="#D8DEE5" stroke-width="1.4"/>
  <text x="135.0" y="222" text-anchor="middle" fill="#6A7480" font-size="10.5" font-weight="700">skill</text>
  <text x="135.0" y="238" text-anchor="middle" fill="#0F1721" font-size="13.5" font-weight="700">变更提取</text>
  <line x1="135.0" y1="136" x2="135.0" y2="200" stroke="#0C8F88" stroke-width="1.4" marker-end="url(#at)"/>
  <rect x="242.5" y="200" width="150" height="46" rx="8" fill="#FFFFFF" stroke="#D8DEE5" stroke-width="1.4"/>
  <text x="317.5" y="222" text-anchor="middle" fill="#6A7480" font-size="10.5" font-weight="700">skill</text>
  <text x="317.5" y="238" text-anchor="middle" fill="#0F1721" font-size="13.5" font-weight="700">用例生成</text>
  <line x1="317.5" y1="136" x2="317.5" y2="200" stroke="#0C8F88" stroke-width="1.4" marker-end="url(#at)"/>
  <rect x="425.0" y="200" width="150" height="46" rx="8" fill="#FFFFFF" stroke="#C2504B" stroke-width="1.6"/>
  <text x="500.0" y="222" text-anchor="middle" fill="#6A7480" font-size="10.5" font-weight="700">skill</text>
  <text x="500.0" y="238" text-anchor="middle" fill="#0F1721" font-size="13.5" font-weight="700">代码评审</text>
  <line x1="500.0" y1="136" x2="500.0" y2="200" stroke="#0C8F88" stroke-width="1.4" marker-end="url(#at)"/>
  <rect x="607.5" y="200" width="150" height="46" rx="8" fill="#FFFFFF" stroke="#D8DEE5" stroke-width="1.4"/>
  <text x="682.5" y="222" text-anchor="middle" fill="#6A7480" font-size="10.5" font-weight="700">skill</text>
  <text x="682.5" y="238" text-anchor="middle" fill="#0F1721" font-size="13.5" font-weight="700">E2E 验证</text>
  <line x1="682.5" y1="136" x2="682.5" y2="200" stroke="#0C8F88" stroke-width="1.4" marker-end="url(#at)"/>
  <rect x="790.0" y="200" width="150" height="46" rx="8" fill="#FFFFFF" stroke="#D8DEE5" stroke-width="1.4"/>
  <text x="865.0" y="222" text-anchor="middle" fill="#6A7480" font-size="10.5" font-weight="700">skill</text>
  <text x="865.0" y="238" text-anchor="middle" fill="#0F1721" font-size="13.5" font-weight="700">度量落库</text>
  <line x1="865.0" y1="136" x2="865.0" y2="200" stroke="#0C8F88" stroke-width="1.4" marker-end="url(#at)"/>
  <rect x="290" y="330" width="420" height="170" rx="12" fill="#FBFCFD" stroke="#6A7480" stroke-width="1.4" stroke-dasharray="7 5"/>
  <text x="306" y="354" text-anchor="start" fill="#6A7480" font-size="12.5" font-weight="700">workflow · 后台派生子 Agent · 并行扇出</text>
  <line x1="500.0" y1="246" x2="500.0" y2="330" stroke="#C2504B" stroke-width="1.5" marker-end="url(#ar)"/>

  <rect x="312.0" y="386" width="88" height="58" rx="7" fill="#FFFFFF" stroke="#D8DEE5" stroke-width="1.3"/>
  <text x="356.0" y="411" text-anchor="middle" fill="#0F1721" font-size="12" font-weight="600">功能</text>
  <text x="356.0" y="429" text-anchor="middle" fill="#0F1721" font-size="12" font-weight="600">正确性</text>
  <rect x="408.0" y="386" width="88" height="58" rx="7" fill="#FFFFFF" stroke="#D8DEE5" stroke-width="1.3"/>
  <text x="452.0" y="411" text-anchor="middle" fill="#0F1721" font-size="12" font-weight="600">权限/</text>
  <text x="452.0" y="429" text-anchor="middle" fill="#0F1721" font-size="12" font-weight="600">多租户</text>
  <rect x="504.0" y="386" width="88" height="58" rx="7" fill="#FFFFFF" stroke="#D8DEE5" stroke-width="1.3"/>
  <text x="548.0" y="411" text-anchor="middle" fill="#0F1721" font-size="12" font-weight="600">边界</text>
  <text x="548.0" y="429" text-anchor="middle" fill="#0F1721" font-size="12" font-weight="600">/异常</text>
  <rect x="600.0" y="386" width="88" height="58" rx="7" fill="#FFFFFF" stroke="#D8DEE5" stroke-width="1.3"/>
  <text x="644.0" y="411" text-anchor="middle" fill="#0F1721" font-size="12" font-weight="600">对抗</text>
  <text x="644.0" y="429" text-anchor="middle" fill="#0F1721" font-size="12" font-weight="600">式复核</text>
  <text x="500.0" y="488" text-anchor="middle" fill="#6A7480" font-size="12" font-weight="600">多维并行审 → 每条发现再对抗式复核去误报</text>
  <rect x="90" y="512" width="16" height="16" rx="4" fill="#0C8F88" stroke="#0C8F88" stroke-width="1.4"/>
  <text x="114" y="524" text-anchor="start" fill="#0F1721" font-size="12.5" font-weight="800">command</text>
  <text x="176" y="524" text-anchor="start" fill="#6A7480" font-size="12" font-weight="600">主会话·串流程·调工具</text>
  <rect x="390" y="512" width="16" height="16" rx="4" fill="#FFFFFF" stroke="#D8DEE5" stroke-width="1.4"/>
  <text x="414" y="524" text-anchor="start" fill="#0F1721" font-size="12.5" font-weight="800">skill</text>
  <text x="460" y="524" text-anchor="start" fill="#6A7480" font-size="12" font-weight="600">主会话·某类任务标准做法</text>
  <rect x="690" y="512" width="16" height="16" rx="4" fill="#6A7480" stroke="#6A7480" stroke-width="1.4"/>
  <text x="714" y="524" text-anchor="start" fill="#0F1721" font-size="12.5" font-weight="800">workflow</text>
  <text x="784" y="524" text-anchor="start" fill="#6A7480" font-size="12" font-weight="600">后台·纯读代码·可扇出</text>
</svg>